<?xml version="1.0" encoding="iso-8859-1"?>
<!-- Generator: Adobe Illustrator 18.0.0, SVG Export Plug-In . SVG Version: 6.00 Build 0)  -->
<!DOCTYPE svg PUBLIC "-//W3C//DTD SVG 1.1//EN" "http://www.w3.org/Graphics/SVG/1.1/DTD/svg11.dtd">
<svg version="1.1" id="Capa_1" xmlns="http://www.w3.org/2000/svg" xmlns:xlink="http://www.w3.org/1999/xlink" x="0px" y="0px"
	 viewBox="0 0 352.644 352.644" style="enable-background:new 0 0 352.644 352.644;" xml:space="preserve">
<path d="M324.478,51.943L177.986,0.285c-1.076-0.38-2.25-0.38-3.326,0L28.166,51.943c-1.999,0.705-3.337,2.595-3.337,4.715
	c0,52.278,13.834,112.711,37.956,165.805c19.566,43.069,54.751,100.519,111.248,129.625c0.719,0.37,1.504,0.555,2.29,0.555
	s1.571-0.185,2.29-0.555c56.496-29.106,91.68-86.556,111.247-129.625c24.121-53.094,37.955-113.527,37.955-165.805
	C327.815,54.538,326.477,52.648,324.478,51.943z" fill="#303841"/>
</svg>
